<svg version="1.1" id="Layer_1" xmlns="http://www.w3.org/2000/svg" xmlns:xlink="http://www.w3.org/1999/xlink" x="0px" y="0px"
	 width="100%" viewBox="0 0 512 512" enable-background="new 0 0 512 512" xml:space="preserve">
<path fill="#5B12BE" opacity="1.000000" stroke="none" 
	d="
M513.000000,126.000000 
	C513.000000,133.354248 513.000000,140.708496 512.666382,148.608109 
	C510.546173,150.611191 508.616486,151.925629 506.993774,153.547241 
	C435.954773,224.538483 364.954834,295.568817 293.865723,366.509827 
	C291.890228,368.481262 288.994202,369.530304 286.487061,370.541870 
	C286.557983,357.059235 286.669312,344.044220 287.108643,331.011475 
	C289.577393,329.542847 292.018158,328.392426 293.815552,326.597687 
	C363.238281,257.277161 432.593018,187.888474 502.022736,118.574928 
	C503.922974,116.677895 506.547028,115.505898 508.919617,114.390633 
	C509.346710,116.343460 509.515930,117.965721 510.068878,119.444473 
	C510.905640,121.682114 512.009583,123.819824 513.000000,126.000000 
z"/>
<path fill="#5313BB" opacity="1.000000" stroke="none" 
	d="
M286.527435,371.009491 
	C288.994202,369.530304 291.890228,368.481262 293.865723,366.509827 
	C364.954834,295.568817 435.954773,224.538483 506.993774,153.547241 
	C508.616486,151.925629 510.546173,150.611191 512.666382,149.076736 
	C513.000000,159.687561 513.000000,170.375122 512.666382,181.608093 
	C510.545502,183.611984 508.615143,184.927185 506.991699,186.549515 
	C435.568848,257.924622 364.180969,329.334686 292.728668,400.680237 
	C290.936371,402.469849 288.469147,403.583557 286.360474,404.544678 
	C286.445312,393.054443 286.486389,382.031952 286.527435,371.009491 
z"/>
<path fill="#2D16AC" opacity="1.000000" stroke="none" 
	d="
M388.000000,513.000000 
	C378.645782,513.000000 369.291534,513.000000 359.545410,512.666382 
	C360.255951,510.901642 361.215271,509.327545 362.481476,508.060059 
	C411.027069,459.465790 459.594666,410.893524 508.202118,362.361206 
	C509.563202,361.002228 511.390259,360.109924 513.000000,359.000000 
	C513.000000,368.354218 513.000000,377.708466 512.599854,387.444641 
	C511.829437,388.329926 511.274536,388.781372 511.116272,389.344299 
	C508.367584,399.121674 506.379150,409.180115 502.821198,418.649841 
	C492.848267,445.193390 476.006378,466.936920 453.338654,483.758240 
	C434.369812,497.834625 413.189758,507.501068 389.566803,511.137207 
	C388.963257,511.230133 388.518707,512.355896 388.000000,513.000000 
z"/>
<path fill="#3F14B3" opacity="1.000000" stroke="none" 
	d="
M297.000000,513.000000 
	C286.979095,513.000000 276.958221,513.000000 266.545410,512.666382 
	C267.257416,510.900085 268.217834,509.324066 269.485779,508.055450 
	C349.030243,428.465424 428.596100,348.896790 508.198273,269.364502 
	C509.560028,268.003937 511.389008,267.111084 513.000000,266.000000 
	C513.000000,276.020905 513.000000,286.041779 512.666260,296.607849 
	C510.899597,298.256927 509.323151,299.217255 508.054230,300.485291 
	C438.797638,369.695526 369.562622,438.927338 300.364807,508.196320 
	C299.003998,509.558563 298.111145,511.388336 297.000000,513.000000 
z"/>
<path fill="#AE0CE0" opacity="1.000000" stroke="none" 
	d="
M1.000003,215.000000 
	C1.000000,203.645767 1.000000,192.291550 1.333647,180.391907 
	C3.100595,178.741898 4.677062,177.780563 5.946619,176.512070 
	C62.869057,119.637154 119.769745,62.740459 176.631821,5.805212 
	C177.993332,4.441949 178.887726,2.612180 180.000000,1.000000 
	C191.354233,1.000000 202.708450,1.000000 214.506409,1.359418 
	C213.914078,3.364959 213.144257,5.276959 211.803818,6.619088 
	C143.400223,75.109299 74.955559,143.558517 6.448987,211.945709 
	C5.030198,213.362030 2.833693,213.999298 1.000003,215.000000 
z"/>
<path fill="#4714B7" opacity="1.000000" stroke="none" 
	d="
M243.000000,513.000000 
	C234.979095,513.000000 226.958191,513.000000 218.545410,512.666382 
	C219.259216,510.898438 220.221191,509.320465 221.490967,508.050110 
	C317.032501,412.463867 412.595245,316.898773 508.193481,221.369186 
	C509.556671,220.006973 511.387451,219.112671 513.000000,218.000000 
	C513.000000,226.020905 513.000000,234.041809 512.666382,242.608124 
	C510.899750,244.257782 509.323273,245.218475 508.054321,246.486801 
	C420.798462,333.697540 333.563873,420.929596 246.365158,508.197479 
	C245.004318,509.559387 244.111313,511.388763 243.000000,513.000000 
z"/>
<path fill="#3415AF" opacity="1.000000" stroke="none" 
	d="
M513.000000,358.531372 
	C511.390259,360.109924 509.563202,361.002228 508.202118,362.361206 
	C459.594666,410.893524 411.027069,459.465790 362.481476,508.060059 
	C361.215271,509.327545 360.255951,510.901642 359.076752,512.666382 
	C346.312439,513.000000 333.624878,513.000000 320.545410,512.666382 
	C321.257202,510.900360 322.217560,509.324768 323.485168,508.056183 
	C385.028961,446.465393 446.594421,384.896301 508.197784,323.365173 
	C509.559967,322.004578 511.388824,321.111267 513.000000,320.000000 
	C513.000000,332.687561 513.000000,345.375122 513.000000,358.531372 
z"/>
<path fill="#4E13B9" opacity="1.000000" stroke="none" 
	d="
M286.316681,405.012482 
	C288.469147,403.583557 290.936371,402.469849 292.728668,400.680237 
	C364.180969,329.334686 435.568848,257.924622 506.991699,186.549515 
	C508.615143,184.927185 510.545502,183.611984 512.666382,182.076752 
	C513.000000,188.354401 513.000000,194.708786 512.666382,201.608353 
	C510.899353,203.258224 509.322418,204.219330 508.053070,205.488098 
	C407.131409,306.365295 306.230896,407.263580 205.365570,508.197021 
	C204.004532,509.558990 203.111481,511.388641 202.000000,513.000000 
	C195.645599,513.000000 189.291214,513.000000 182.545166,512.666382 
	C183.491379,510.666107 184.687012,508.857513 186.188095,507.353851 
	C218.035934,475.450623 249.933075,443.596619 281.751770,411.664398 
	C283.430634,409.979553 284.502014,407.689392 285.907227,405.469757 
	C285.958221,405.258453 286.316681,405.012482 286.316681,405.012482 
z"/>
<path fill="#A70DDE" opacity="1.000000" stroke="none" 
	d="
M1.000003,215.468658 
	C2.833693,213.999298 5.030198,213.362030 6.448987,211.945709 
	C74.955559,143.558517 143.400223,75.109299 211.803818,6.619088 
	C213.144257,5.276959 213.914078,3.364959 214.975067,1.359418 
	C223.687561,1.000000 232.375137,1.000000 241.454712,1.333685 
	C240.510666,3.332213 239.316895,5.139081 237.817627,6.640986 
	C206.241974,38.272015 174.611542,69.848427 143.082520,101.525787 
	C141.321762,103.294838 140.342712,105.841934 138.542709,108.129616 
	C133.161804,108.232338 128.237991,108.232338 122.873764,108.232338 
	C122.873764,114.720139 122.873764,120.360489 122.549164,126.083725 
	C120.571373,127.522728 118.789566,128.750046 117.283813,130.253799 
	C80.950676,166.538544 44.667072,202.872955 8.284852,239.108337 
	C6.250522,241.134445 3.446029,242.387268 1.000002,244.000000 
	C1.000000,234.645767 1.000000,225.291550 1.000003,215.468658 
z"/>
<path fill="#4214B5" opacity="1.000000" stroke="none" 
	d="
M243.468628,513.000000 
	C244.111313,511.388763 245.004318,509.559387 246.365158,508.197479 
	C333.563873,420.929596 420.798462,333.697540 508.054321,246.486801 
	C509.323273,245.218475 510.899750,244.257782 512.666382,243.076752 
	C513.000000,250.354248 513.000000,257.708496 513.000000,265.531372 
	C511.389008,267.111084 509.560028,268.003937 508.198273,269.364502 
	C428.596100,348.896790 349.030243,428.465424 269.485779,508.055450 
	C268.217834,509.324066 267.257416,510.900085 266.076752,512.666382 
	C258.645752,513.000000 251.291504,513.000000 243.468628,513.000000 
z"/>
<path fill="#B50CE3" opacity="1.000000" stroke="none" 
	d="
M179.531342,1.000000 
	C178.887726,2.612180 177.993332,4.441949 176.631821,5.805212 
	C119.769745,62.740459 62.869057,119.637154 5.946619,176.512070 
	C4.677062,177.780563 3.100595,178.741898 1.333647,179.923248 
	C1.000000,167.979111 1.000000,155.958206 1.359419,143.443756 
	C3.362418,141.916656 5.270945,141.148651 6.611202,139.811188 
	C51.109734,95.405373 95.565468,50.956631 139.953522,6.440428 
	C141.366531,5.023334 142.002029,2.830954 143.000000,0.999999 
	C155.020889,1.000000 167.041794,1.000000 179.531342,1.000000 
z"/>
<path fill="#BC0CE6" opacity="1.000000" stroke="none" 
	d="
M142.532394,0.999999 
	C142.002029,2.830954 141.366531,5.023334 139.953522,6.440428 
	C95.565468,50.956631 51.109734,95.405373 6.611202,139.811188 
	C5.270945,141.148651 3.362418,141.916656 1.359419,142.975098 
	C1.000000,137.645065 1.000000,132.290146 1.304274,126.819778 
	C2.058917,126.052467 2.823203,125.441010 2.913077,124.742737 
	C4.542063,112.086205 8.624277,100.151939 13.830020,88.610352 
	C24.310249,65.374786 39.615772,45.756836 60.053234,30.576731 
	C79.153427,16.389896 100.469727,6.761245 124.171471,2.920576 
	C124.866470,2.807957 125.394249,1.663407 126.000000,1.000000 
	C131.354935,1.000000 136.709854,1.000000 142.532394,0.999999 
z"/>
<path fill="#8B0FD2" opacity="1.000000" stroke="none" 
	d="
M1.000005,388.000000 
	C1.000000,381.645599 1.000000,375.291199 1.359426,368.443542 
	C3.365159,366.914062 5.277153,366.143921 6.619587,364.803436 
	C68.759056,302.751862 130.859940,240.661621 192.889023,178.499756 
	C194.678925,176.706024 195.647675,174.092926 197.455002,171.742310 
	C205.940491,171.702240 213.970261,171.781738 221.935425,172.216614 
	C220.393753,174.734680 219.215332,177.195572 217.396530,179.017044 
	C148.587875,247.927582 79.731003,316.790039 10.811582,385.589813 
	C8.634244,387.763336 5.731030,389.209717 3.096913,390.581421 
	C2.351748,389.445129 1.675879,388.722565 1.000005,388.000000 
z"/>
<path fill="#940ED5" opacity="1.000000" stroke="none" 
	d="
M1.000004,346.000000 
	C1.000000,334.979095 1.000000,323.958221 1.359417,312.443726 
	C3.246508,311.032074 5.039104,310.379486 6.263553,309.157562 
	C50.239029,265.273712 94.173721,221.348892 138.035721,177.351685 
	C139.442581,175.940506 140.028839,173.711227 141.454117,171.746719 
	C152.940170,171.707336 163.969757,171.784561 174.929169,172.205170 
	C173.776672,173.995224 172.853134,175.600601 171.589127,176.865814 
	C116.357414,232.150391 61.100948,287.410248 5.806031,342.631592 
	C4.442559,343.993256 2.612467,344.887665 1.000004,346.000000 
z"/>
<path fill="#4B14B8" opacity="1.000000" stroke="none" 
	d="
M202.466858,513.000000 
	C203.111481,511.388641 204.004532,509.558990 205.365570,508.197021 
	C306.230896,407.263580 407.131409,306.365295 508.053070,205.488098 
	C509.322418,204.219330 510.899353,203.258224 512.666382,202.076752 
	C513.000000,207.022095 513.000000,212.044189 513.000000,217.533142 
	C511.387451,219.112671 509.556671,220.006973 508.193481,221.369186 
	C412.595245,316.898773 317.032501,412.463867 221.490967,508.050110 
	C220.221191,509.320465 219.259216,510.898438 218.076782,512.666382 
	C212.977905,513.000000 207.955811,513.000000 202.466858,513.000000 
z"/>
<path fill="#9C0ED9" opacity="1.000000" stroke="none" 
	d="
M140.997635,171.863327 
	C140.028839,173.711227 139.442581,175.940506 138.035721,177.351685 
	C94.173721,221.348892 50.239029,265.273712 6.263553,309.157562 
	C5.039104,310.379486 3.246508,311.032074 1.359417,311.975098 
	C1.000000,299.979095 1.000000,287.958221 1.333650,275.391907 
	C3.450885,273.391663 5.376634,272.079163 6.997177,270.461060 
	C43.472858,234.039825 79.898399,197.568329 116.413879,161.187088 
	C118.192062,159.415436 120.703423,158.379654 122.949097,157.461716 
	C123.024818,162.320770 123.024818,166.719299 123.024818,171.863327 
	C129.483902,171.863327 135.240768,171.863327 140.997635,171.863327 
z"/>
<path fill="#A20DDB" opacity="1.000000" stroke="none" 
	d="
M138.999817,108.026894 
	C140.342712,105.841934 141.321762,103.294838 143.082520,101.525787 
	C174.611542,69.848427 206.241974,38.272015 237.817627,6.640986 
	C239.316895,5.139081 240.510666,3.332213 241.923355,1.333685 
	C256.687561,1.000000 271.375122,1.000000 286.454010,1.333437 
	C285.508881,3.331601 284.314453,5.138108 282.815033,6.640161 
	C251.238358,38.272091 219.606934,69.849434 188.077011,101.527824 
	C186.316284,103.296829 185.338226,105.844833 183.537430,108.133286 
	C168.385910,108.166504 153.692871,108.096695 138.999817,108.026894 
z"/>
<path fill="#3915B1" opacity="1.000000" stroke="none" 
	d="
M513.000000,319.531372 
	C511.388824,321.111267 509.559967,322.004578 508.197784,323.365173 
	C446.594421,384.896301 385.028961,446.465393 323.485168,508.056183 
	C322.217560,509.324768 321.257202,510.900360 320.076721,512.666382 
	C312.645752,513.000000 305.291504,513.000000 297.468628,513.000000 
	C298.111145,511.388336 299.003998,509.558563 300.364807,508.196320 
	C369.562622,438.927338 438.797638,369.695526 508.054230,300.485291 
	C509.323151,299.217255 510.899597,298.256927 512.666260,297.076477 
	C513.000000,304.354248 513.000000,311.708496 513.000000,319.531372 
z"/>
<path fill="#000000" opacity="1.000000" stroke="none" 
	d="
M513.000000,125.531342 
	C512.009583,123.819824 510.905640,121.682114 510.068878,119.444473 
	C509.515930,117.965721 509.346710,116.343460 508.966797,114.005493 
	C506.323914,106.136551 503.719940,99.047554 501.067200,91.581009 
	C498.234497,85.587418 495.450623,79.971375 492.468994,74.070816 
	C488.883606,68.841469 485.495972,63.896626 481.958557,58.644485 
	C478.890076,54.885426 475.971344,51.433666 472.894958,47.662964 
	C472.201935,46.998768 471.613434,46.714180 471.139374,46.298893 
	C466.430176,42.173725 461.739868,38.026962 456.900208,33.582329 
	C448.854706,28.150728 440.953217,23.023106 432.873230,17.591066 
	C422.793976,13.581072 412.893188,9.875494 402.640472,5.988626 
	C398.073517,4.872206 393.837006,4.020083 389.659180,2.940885 
	C388.671570,2.685771 387.881134,1.667307 387.000000,0.999996 
	C428.926666,1.000000 470.853363,1.000000 513.000000,1.000000 
	C513.000000,42.353970 513.000000,83.708328 513.000000,125.531342 
z"/>
<path fill="#000000" opacity="1.000000" stroke="none" 
	d="
M388.468658,513.000000 
	C388.518707,512.355896 388.963257,511.230133 389.566803,511.137207 
	C413.189758,507.501068 434.369812,497.834625 453.338654,483.758240 
	C476.006378,466.936920 492.848267,445.193390 502.821198,418.649841 
	C506.379150,409.180115 508.367584,399.121674 511.116272,389.344299 
	C511.274536,388.781372 511.829437,388.329926 512.599854,387.913330 
	C513.000000,429.593628 513.000000,471.187256 513.000000,513.000000 
	C471.646027,513.000000 430.291687,513.000000 388.468658,513.000000 
z"/>
<path fill="#000000" opacity="1.000000" stroke="none" 
	d="
M1.000005,388.468658 
	C1.675879,388.722565 2.351748,389.445129 3.041077,390.981384 
	C3.368546,393.045074 3.616286,394.316254 4.007474,395.541626 
	C6.304475,402.736938 8.634968,409.921570 10.972612,417.490967 
	C14.622614,425.262787 18.254171,432.653473 21.939922,440.400818 
	C28.310946,449.179688 34.627773,457.601898 41.100151,466.321320 
	C49.955971,473.972229 58.656235,481.325928 67.667786,488.826996 
	C78.305199,494.020050 88.631317,499.065735 99.165054,504.422058 
	C108.234512,506.849182 117.096344,508.965668 126.133194,511.456421 
	C126.205475,512.220459 126.102730,512.610229 126.000000,513.000000 
	C84.406364,513.000000 42.812729,513.000000 1.000000,513.000000 
	C1.000000,471.646027 1.000000,430.291687 1.000005,388.468658 
z"/>
<path fill="#000000" opacity="1.000000" stroke="none" 
	d="
M125.531342,1.000000 
	C125.394249,1.663407 124.866470,2.807957 124.171471,2.920576 
	C100.469727,6.761245 79.153427,16.389896 60.053234,30.576731 
	C39.615772,45.756836 24.310249,65.374786 13.830020,88.610352 
	C8.624277,100.151939 4.542063,112.086205 2.913077,124.742737 
	C2.823203,125.441010 2.058917,126.052467 1.304274,126.352173 
	C1.000000,84.406364 1.000000,42.812733 1.000000,1.000000 
	C42.353970,1.000000 83.708328,1.000000 125.531342,1.000000 
z"/>
<path fill="#8E0FD3" opacity="1.000000" stroke="none" 
	d="
M1.000004,346.468567 
	C2.612467,344.887665 4.442559,343.993256 5.806031,342.631592 
	C61.100948,287.410248 116.357414,232.150391 171.589127,176.865814 
	C172.853134,175.600601 173.776672,173.995224 175.385071,172.086945 
	C182.940521,171.704208 189.969910,171.783051 196.999298,171.861877 
	C195.647675,174.092926 194.678925,176.706024 192.889023,178.499756 
	C130.859940,240.661621 68.759056,302.751862 6.619587,364.803436 
	C5.277153,366.143921 3.365159,366.914062 1.359426,367.975128 
	C1.000000,360.979034 1.000000,353.958099 1.000004,346.468567 
z"/>
<path fill="#5313BB" opacity="1.000000" stroke="none" 
	d="
M285.856232,405.681061 
	C284.502014,407.689392 283.430634,409.979553 281.751770,411.664398 
	C249.933075,443.596619 218.035934,475.450623 186.188095,507.353851 
	C184.687012,508.857513 183.491379,510.666107 182.076752,512.666382 
	C169.645767,513.000000 157.291550,513.000000 144.493835,512.640625 
	C145.435287,510.286346 146.556610,508.028687 148.244171,506.335358 
	C179.446091,475.026917 210.736176,443.806305 241.916824,412.476776 
	C243.677795,410.707397 244.657349,408.160370 246.458984,405.870422 
	C259.896973,405.737396 272.876617,405.709229 285.856232,405.681061 
z"/>
<path fill="#A20DDB" opacity="1.000000" stroke="none" 
	d="
M122.873367,157.001190 
	C120.703423,158.379654 118.192062,159.415436 116.413879,161.187088 
	C79.898399,197.568329 43.472858,234.039825 6.997177,270.461060 
	C5.376634,272.079163 3.450885,273.391663 1.333650,274.923248 
	C1.000000,264.979095 1.000000,254.958206 1.000002,244.468658 
	C3.446029,242.387268 6.250522,241.134445 8.284852,239.108337 
	C44.667072,202.872955 80.950676,166.538544 117.283813,130.253799 
	C118.789566,128.750046 120.571373,127.522728 122.625031,126.546982 
	C122.974785,136.951965 122.924072,146.976578 122.873367,157.001190 
z"/>
<path fill="#9C0ED9" opacity="1.000000" stroke="none" 
	d="
M183.995895,108.030266 
	C185.338226,105.844833 186.316284,103.296829 188.077011,101.527824 
	C219.606934,69.849434 251.238358,38.272091 282.815033,6.640161 
	C284.314453,5.138108 285.508881,3.331601 286.922668,1.333437 
	C297.354218,1.000000 307.708466,1.000000 318.506042,1.359339 
	C317.564941,3.713014 316.444122,5.970050 314.757080,7.662762 
	C283.213623,39.312393 251.591797,70.883942 220.038895,102.524193 
	C218.449234,104.118233 217.333313,106.184723 215.538452,108.135391 
	C204.718689,108.169785 194.357285,108.100021 183.995895,108.030266 
z"/>
<path fill="#940ED5" opacity="1.000000" stroke="none" 
	d="
M215.996811,108.031242 
	C217.333313,106.184723 218.449234,104.118233 220.038895,102.524193 
	C251.591797,70.883942 283.213623,39.312393 314.757080,7.662762 
	C316.444122,5.970050 317.564941,3.713014 318.974670,1.359339 
	C329.020905,1.000000 339.041779,1.000000 349.506348,1.359404 
	C348.565918,3.713176 347.445526,5.970375 345.758636,7.662960 
	C314.215973,39.311779 282.594940,70.882484 251.042725,102.521782 
	C249.452927,104.115959 248.335739,106.181465 246.539978,108.131752 
	C236.053238,108.167732 226.025024,108.099487 215.996811,108.031242 
z"/>
<path fill="#8B0FD2" opacity="1.000000" stroke="none" 
	d="
M386.555847,0.999996 
	C387.881134,1.667307 388.671570,2.685771 389.659180,2.940885 
	C393.837006,4.020083 398.073517,4.872206 402.556641,6.309878 
	C401.460388,8.463686 400.220093,10.238797 398.713379,11.747931 
	C368.499146,42.011166 338.242615,72.232208 308.048126,102.515091 
	C306.455627,104.112228 305.336212,106.181015 303.538300,108.135391 
	C293.719604,108.170181 284.359131,108.099815 275.074188,107.693695 
	C276.603516,105.568039 277.912109,103.633148 279.532684,102.009659 
	C311.318359,70.166267 343.151154,38.369949 374.922913,6.512711 
	C376.519379,4.911939 377.651611,2.848186 379.000000,1.000001 
	C381.370575,1.000000 383.741119,1.000000 386.555847,0.999996 
z"/>
<path fill="#8E0FD3" opacity="1.000000" stroke="none" 
	d="
M378.531342,1.000001 
	C377.651611,2.848186 376.519379,4.911939 374.922913,6.512711 
	C343.151154,38.369949 311.318359,70.166267 279.532684,102.009659 
	C277.912109,103.633148 276.603516,105.568039 274.615540,107.797256 
	C265.053772,108.166878 256.026154,108.097206 246.998520,108.027527 
	C248.335739,106.181465 249.452927,104.115959 251.042725,102.521782 
	C282.594940,70.882484 314.215973,39.311779 345.758636,7.662960 
	C347.445526,5.970375 348.565918,3.713176 349.975037,1.359404 
	C359.354218,1.000000 368.708466,1.000000 378.531342,1.000001 
z"/>
<path fill="#5B12BE" opacity="1.000000" stroke="none" 
	d="
M246.000610,405.975281 
	C244.657349,408.160370 243.677795,410.707397 241.916824,412.476776 
	C210.736176,443.806305 179.446091,475.026917 148.244171,506.335358 
	C146.556610,508.028687 145.435287,510.286346 144.025177,512.640625 
	C138.311951,513.000000 132.623917,513.000000 126.467934,513.000000 
	C126.102730,512.610229 126.205475,512.220459 126.215195,511.118042 
	C127.569733,508.615204 128.869278,506.677246 130.486786,505.056671 
	C161.629700,473.854614 192.821198,442.701050 223.949814,411.484772 
	C225.541870,409.888306 226.660431,407.819672 228.457153,405.865479 
	C234.610092,405.831818 240.305359,405.903534 246.000610,405.975281 
z"/>
<path fill="#FFFFFF" opacity="1.000000" stroke="none" 
	d="
M246.458984,405.870422 
	C240.305359,405.903534 234.610092,405.831818 228.077637,405.759033 
	C226.190262,405.722717 225.140060,405.687500 224.030884,405.466156 
	C223.810226,405.050262 223.589203,404.926880 223.277100,404.447998 
	C223.159653,396.657135 223.073898,389.328156 223.089584,381.540100 
	C223.124222,365.720856 223.057434,350.360626 223.091797,334.541199 
	C223.124435,317.721466 223.055923,301.360962 223.087967,284.541077 
	C223.122131,270.054565 223.055725,256.027405 223.089050,241.540756 
	C223.188782,232.806412 223.188782,224.531540 223.188782,215.238983 
	C231.489578,215.238983 239.235321,215.238983 247.433792,215.372757 
	C258.933838,215.418457 269.981201,215.330383 281.477356,215.376709 
	C285.702087,215.006195 286.583344,216.799957 286.513702,220.350464 
	C286.358948,228.239471 286.663605,236.137482 286.647888,244.480316 
	C286.602570,255.947037 286.690399,266.965240 286.643951,278.435547 
	C286.600922,286.600555 286.692200,294.313416 286.648163,302.474670 
	C286.602112,312.291718 286.691376,321.660461 286.780640,331.029175 
	C286.669312,344.044220 286.557983,357.059235 286.487061,370.541870 
	C286.486389,382.031952 286.445312,393.054443 286.360474,404.544678 
	C286.316681,405.012482 285.958221,405.258453 285.907227,405.469757 
	C272.876617,405.709229 259.896973,405.737396 246.458984,405.870422 
z"/>
<path fill="#6112C1" opacity="1.000000" stroke="none" 
	d="
M287.108643,331.011475 
	C286.691376,321.660461 286.602112,312.291718 286.955933,302.426208 
	C289.204590,300.514465 291.180237,299.269684 292.791290,297.660004 
	C359.558380,230.950104 426.280090,164.194794 493.085327,97.523186 
	C495.353882,95.259163 498.421051,93.795357 501.115997,91.958557 
	C503.719940,99.047554 506.323914,106.136551 508.880737,113.610672 
	C506.547028,115.505898 503.922974,116.677895 502.022736,118.574928 
	C432.593018,187.888474 363.238281,257.277161 293.815552,326.597687 
	C292.018158,328.392426 289.577393,329.542847 287.108643,331.011475 
z"/>
<path fill="#FFFFFF" opacity="1.000000" stroke="none" 
	d="
M246.539978,108.131760 
	C256.026154,108.097206 265.053772,108.166878 274.540039,108.133003 
	C284.359131,108.099815 293.719604,108.170181 303.997894,108.236526 
	C318.276550,108.164238 331.637360,108.095963 345.457397,108.129776 
	C359.277496,108.164421 372.638367,108.096970 386.409302,108.132668 
	C389.908386,107.844505 391.180359,108.955383 391.019043,112.295174 
	C390.782928,117.183899 391.066315,122.097717 391.050568,127.463654 
	C391.024689,134.618332 391.076508,141.310181 391.050690,148.464890 
	C390.973083,156.325348 390.973083,163.722977 390.973083,171.861450 
	C379.849182,171.861450 369.423340,171.861450 358.543274,171.736343 
	C345.391968,171.694153 332.694824,171.777054 319.543091,171.736633 
	C308.058838,171.696457 297.029266,171.779587 285.544678,171.740143 
	C274.393005,171.698547 263.696320,171.779495 252.544525,171.738312 
	C242.059647,171.697861 232.029846,171.779541 222.000046,171.861237 
	C213.970261,171.781738 205.940491,171.702240 197.455017,171.742310 
	C189.969910,171.783051 182.940521,171.704208 175.455231,171.743591 
	C163.969757,171.784561 152.940170,171.707336 141.454117,171.746719 
	C135.240768,171.863327 129.483902,171.863327 123.024818,171.863327 
	C123.024818,166.719299 123.024818,162.320770 122.949089,157.461716 
	C122.924072,146.976578 122.974785,136.951965 122.949631,126.464096 
	C122.873764,120.360489 122.873764,114.720139 122.873764,108.232338 
	C128.237991,108.232338 133.161804,108.232338 138.542709,108.129616 
	C153.692871,108.096695 168.385910,108.166504 183.537430,108.133286 
	C194.357285,108.100021 204.718689,108.169785 215.538452,108.135391 
	C226.025024,108.099487 236.053238,108.167732 246.539978,108.131760 
z"/>
<path fill="#850FCF" opacity="1.000000" stroke="none" 
	d="
M221.935425,172.216614 
	C232.029846,171.779541 242.059647,171.697861 252.521820,172.107025 
	C251.472672,174.728699 250.274155,177.142181 248.468887,178.949646 
	C170.878052,256.635071 93.231644,334.264954 15.606986,411.916565 
	C13.966273,413.557892 12.501182,415.374817 10.954164,417.109802 
	C8.634968,409.921570 6.304475,402.736938 4.007474,395.541626 
	C3.616286,394.316254 3.368546,393.045074 3.110372,391.395081 
	C5.731030,389.209717 8.634244,387.763336 10.811582,385.589813 
	C79.731003,316.790039 148.587875,247.927582 217.396530,179.017044 
	C219.215332,177.195572 220.393753,174.734680 221.935425,172.216614 
z"/>
<path fill="#6B11C5" opacity="1.000000" stroke="none" 
	d="
M358.997498,171.861450 
	C369.423340,171.861450 379.849182,171.861450 390.973083,171.861450 
	C390.973083,163.722977 390.973083,156.325348 391.401917,148.437271 
	C393.695892,146.655792 395.812286,145.615616 397.388947,144.036499 
	C425.667603,115.713730 453.880981,87.325775 482.108337,58.951790 
	C485.495972,63.896626 488.883606,68.841469 492.202515,74.377594 
	C491.143341,76.091194 490.210510,77.271057 489.154297,78.327591 
	C423.938171,143.562302 358.722748,208.797775 293.429382,273.955078 
	C291.647156,275.733582 289.014374,276.659790 286.778229,277.983459 
	C286.690399,266.965240 286.602570,255.947037 286.955719,244.431274 
	C288.844238,242.875977 290.459381,241.986343 291.714386,240.735428 
	C313.093597,219.425797 334.443146,198.086212 355.737457,176.691788 
	C357.083313,175.339630 357.922577,173.483261 358.997498,171.861450 
z"/>
<path fill="#6512C3" opacity="1.000000" stroke="none" 
	d="
M286.643951,278.435547 
	C289.014374,276.659790 291.647156,275.733582 293.429382,273.955078 
	C358.722748,208.797775 423.938171,143.562302 489.154297,78.327591 
	C490.210510,77.271057 491.143341,76.091194 492.400269,74.662109 
	C495.450623,79.971375 498.234497,85.587418 501.067200,91.581017 
	C498.421051,93.795357 495.353882,95.259163 493.085327,97.523186 
	C426.280090,164.194794 359.558380,230.950104 292.791290,297.660004 
	C291.180237,299.269684 289.204590,300.514465 287.091187,301.977844 
	C286.692200,294.313416 286.600922,286.600555 286.643951,278.435547 
z"/>
<path fill="#820FCE" opacity="1.000000" stroke="none" 
	d="
M344.998169,108.027695 
	C331.637360,108.095963 318.276550,108.164238 304.456146,108.131371 
	C305.336212,106.181015 306.455627,104.112228 308.048126,102.515091 
	C338.242615,72.232208 368.499146,42.011166 398.713379,11.747931 
	C400.220093,10.238797 401.460388,8.463686 402.908569,6.491168 
	C412.893188,9.875494 422.793976,13.581072 432.685120,17.874256 
	C431.049011,19.876543 429.331421,21.199944 427.809692,22.719488 
	C401.185455,49.305817 374.565857,75.896889 348.033691,102.574921 
	C346.621765,103.994614 345.992035,106.192223 344.998169,108.027695 
z"/>
<path fill="#7910CB" opacity="1.000000" stroke="none" 
	d="
M345.457397,108.129784 
	C345.992035,106.192223 346.621765,103.994614 348.033691,102.574921 
	C374.565857,75.896889 401.185455,49.305817 427.809692,22.719488 
	C429.331421,21.199944 431.049011,19.876543 432.863586,18.178673 
	C440.953217,23.023106 448.854706,28.150728 456.820007,33.923431 
	C455.556396,36.245171 454.378876,38.071255 452.878967,39.575935 
	C431.952423,60.569077 410.965179,81.501740 390.055023,102.511147 
	C388.462524,104.111191 387.340149,106.179092 385.999237,108.029526 
	C372.638367,108.096970 359.277496,108.164421 345.457397,108.129784 
z"/>
<path fill="#7211C8" opacity="1.000000" stroke="none" 
	d="
M386.409302,108.132668 
	C387.340149,106.179092 388.462524,104.111191 390.055023,102.511147 
	C410.965179,81.501740 431.952423,60.569077 452.878967,39.575935 
	C454.378876,38.071255 455.556396,36.245171 456.963989,34.227409 
	C461.739868,38.026962 466.430176,42.173725 471.139374,46.298893 
	C471.613434,46.714180 472.201935,46.998768 472.557983,47.741356 
	C470.711334,49.467010 468.898407,50.649353 467.398407,52.145420 
	C443.778015,75.703659 420.211182,99.315582 396.579132,122.862068 
	C394.977570,124.457832 392.955048,125.631081 391.128296,127.000839 
	C391.066315,122.097717 390.782928,117.183899 391.019043,112.295174 
	C391.180359,108.955383 389.908386,107.844505 386.409302,108.132668 
z"/>
<path fill="#6F11C6" opacity="1.000000" stroke="none" 
	d="
M391.050598,127.463654 
	C392.955048,125.631081 394.977570,124.457832 396.579132,122.862068 
	C420.211182,99.315582 443.778015,75.703659 467.398407,52.145420 
	C468.898407,50.649353 470.711334,49.467010 472.715637,48.060303 
	C475.971344,51.433666 478.890076,54.885426 481.958557,58.644485 
	C453.880981,87.325775 425.667603,115.713730 397.388947,144.036499 
	C395.812286,145.615616 393.695892,146.655792 391.479492,147.974426 
	C391.076508,141.310181 391.024689,134.618332 391.050598,127.463654 
z"/>
<path fill="#7F10CD" opacity="1.000000" stroke="none" 
	d="
M10.972609,417.490967 
	C12.501182,415.374817 13.966273,413.557892 15.606986,411.916565 
	C93.231644,334.264954 170.878052,256.635071 248.468887,178.949646 
	C250.274155,177.142181 251.472672,174.728699 252.976898,172.229172 
	C263.696320,171.779495 274.393005,171.698547 285.480042,172.095520 
	C284.399841,174.729294 283.211426,177.162170 281.412018,178.995209 
	C271.186188,189.412003 260.780457,199.652069 250.530746,210.045746 
	C249.081909,211.514893 248.151443,213.495239 246.981079,215.238983 
	C239.235321,215.238983 231.489578,215.238983 223.188782,215.238983 
	C223.188782,224.531540 223.188782,232.806412 222.756195,241.617950 
	C220.537155,243.614990 218.608856,244.933456 216.984756,246.556320 
	C153.910370,309.582367 90.869949,372.642426 27.780642,435.653534 
	C26.065145,437.366852 23.861658,438.591583 21.885731,440.044128 
	C18.254171,432.653473 14.622614,425.262787 10.972609,417.490967 
z"/>
<path fill="#6F11C6" opacity="1.000000" stroke="none" 
	d="
M222.987427,285.000427 
	C223.055923,301.360962 223.124435,317.721466 222.758835,334.618347 
	C220.539948,336.613007 218.613495,337.929535 216.990967,339.550323 
	C169.169418,387.320953 121.380905,435.124695 73.572174,482.908173 
	C71.573753,484.905518 69.431664,486.759064 67.356506,488.679626 
	C58.656235,481.325928 49.955971,473.972229 41.340469,466.089661 
	C42.635265,464.188904 43.774761,462.746552 45.065491,461.455322 
	C102.754234,403.743073 160.451218,346.039032 218.187881,288.374695 
	C219.551163,287.013092 221.377213,286.114807 222.987427,285.000427 
z"/>
<path fill="#7810CA" opacity="1.000000" stroke="none" 
	d="
M223.087982,284.541077 
	C221.377213,286.114807 219.551163,287.013092 218.187881,288.374695 
	C160.451218,346.039032 102.754234,403.743073 45.065491,461.455322 
	C43.774761,462.746552 42.635265,464.188904 41.184917,465.792419 
	C34.627773,457.601898 28.310946,449.179688 21.939926,440.400818 
	C23.861658,438.591583 26.065145,437.366852 27.780642,435.653534 
	C90.869949,372.642426 153.910370,309.582367 216.984756,246.556320 
	C218.608856,244.933456 220.537155,243.614990 222.656464,242.077393 
	C223.055725,256.027405 223.122131,270.054565 223.087982,284.541077 
z"/>
<path fill="#6512C3" opacity="1.000000" stroke="none" 
	d="
M67.667793,488.826996 
	C69.431664,486.759064 71.573753,484.905518 73.572174,482.908173 
	C121.380905,435.124695 169.169418,387.320953 216.990967,339.550323 
	C218.613495,337.929535 220.539948,336.613007 222.657684,335.077515 
	C223.057434,350.360626 223.124222,365.720856 222.730942,381.565521 
	C220.273239,383.440643 218.013351,384.568359 216.316544,386.260681 
	C178.469086,424.007446 140.680588,461.813324 102.898460,499.625580 
	C101.494522,501.030640 100.267113,502.612152 98.957443,504.111450 
	C88.631317,499.065735 78.305199,494.020050 67.667793,488.826996 
z"/>
<path fill="#5D12BF" opacity="1.000000" stroke="none" 
	d="
M99.165062,504.422058 
	C100.267113,502.612152 101.494522,501.030640 102.898460,499.625580 
	C140.680588,461.813324 178.469086,424.007446 216.316544,386.260681 
	C218.013351,384.568359 220.273239,383.440643 222.629501,382.024536 
	C223.073898,389.328156 223.159653,396.657135 223.221085,404.706970 
	C223.494461,405.502625 223.792175,405.577454 224.089874,405.652283 
	C225.140060,405.687500 226.190262,405.722717 227.619949,405.864410 
	C226.660431,407.819672 225.541870,409.888306 223.949814,411.484772 
	C192.821198,442.701050 161.629700,473.854614 130.486786,505.056671 
	C128.869278,506.677246 127.569733,508.615204 126.040161,510.743774 
	C117.096344,508.965668 108.234512,506.849182 99.165062,504.422058 
z"/>
<path fill="#7211C8" opacity="1.000000" stroke="none" 
	d="
M358.543274,171.736343 
	C357.922577,173.483261 357.083313,175.339630 355.737457,176.691788 
	C334.443146,198.086212 313.093597,219.425797 291.714386,240.735428 
	C290.459381,241.986343 288.844238,242.875977 287.088867,243.982788 
	C286.663605,236.137482 286.358948,228.239471 286.513702,220.350464 
	C286.583344,216.799957 285.702087,215.006195 281.483490,215.048065 
	C282.121704,212.795670 282.904755,210.713211 284.330994,209.263611 
	C294.951233,198.469574 305.730469,187.832123 316.369995,177.056824 
	C317.833038,175.575119 318.800690,173.604324 319.997711,171.859955 
	C332.694824,171.777054 345.391968,171.694153 358.543274,171.736343 
z"/>
<path fill="#7910CB" opacity="1.000000" stroke="none" 
	d="
M319.543091,171.736633 
	C318.800690,173.604324 317.833038,175.575119 316.369995,177.056824 
	C305.730469,187.832123 294.951233,198.469574 284.330994,209.263611 
	C282.904755,210.713211 282.121704,212.795670 281.034668,214.913681 
	C269.981201,215.330383 258.933838,215.418457 247.433792,215.372757 
	C248.151443,213.495239 249.081909,211.514893 250.530746,210.045746 
	C260.780457,199.652069 271.186188,189.412003 281.412018,178.995209 
	C283.211426,177.162170 284.399841,174.729294 285.935059,172.218079 
	C297.029266,171.779587 308.058838,171.696457 319.543091,171.736633 
z"/>
<path fill="#D0A7ED" opacity="1.000000" stroke="none" 
	d="
M224.030884,405.466125 
	C223.792175,405.577454 223.494461,405.502625 223.252777,405.168854 
	C223.589203,404.926880 223.810226,405.050262 224.030884,405.466125 
z"/>
</svg>